<?xml version="1.0" encoding="utf-8"?>
<!-- Generator: Adobe Illustrator 24.0.3, SVG Export Plug-In . SVG Version: 6.00 Build 0)  -->
<svg version="1.1" id="Layer_1" xmlns="http://www.w3.org/2000/svg" xmlns:xlink="http://www.w3.org/1999/xlink" x="0px" y="0px"
	 viewBox="0 0 1000 1000" style="enable-background:new 0 0 1000 1000;" xml:space="preserve">
<title>080520-domestic-o-outlined</title>
<g id="b">
	<path d="M677.9,999.8H511.4L411,962.4l-80.6-127.5l-30.2-140.7l34-91.7l79.9-99.9l24.4-15l-160.4-43.7l-98-162.2l27.1-155.7
		l88.5-91.9L447.3,0.2l121.9,44l81,94.5l35.5,138.5l-56,125.5l-70.1,51.9l104.6,13.4l51.9,34.5L803,609.5l16.9,91.3l-13.3,150.1
		l-57.2,75.7L677.9,999.8z M515,980.2h154.7l64.8-66.3l53.1-70.2l12.6-141.8L784.6,618l-81.9-100.7l-45.5-30.3l-148.4-19L614,390.1
		L665,275.5L632.4,148l-74.7-87.1L446,20.6L305.7,51.7L225.5,135l-24.8,142.6l90.1,149.2l196.4,53.6l-60,36.9l-75.8,94.8l-30.9,83.4
		l28.3,131.7l75.1,119L515,980.2z"/>
</g>
</svg>
