<?xml version="1.0" encoding="utf-8"?>
<!-- Generator: Adobe Illustrator 24.0.3, SVG Export Plug-In . SVG Version: 6.00 Build 0)  -->
<svg version="1.1" id="Layer_1" xmlns="http://www.w3.org/2000/svg" xmlns:xlink="http://www.w3.org/1999/xlink" x="0px" y="0px"
	 viewBox="0 0 1000 1000" style="enable-background:new 0 0 1000 1000;" xml:space="preserve">
<title>080520-domestic-o-outlined</title>
<g id="p">
	<polygon points="207.9,934.8 21.1,934.8 0,903.2 0,860.8 20.2,819.1 66.5,819.1 74.3,668.8 76.5,564.4 130.8,564.4 137.9,759.5 
		187.8,645.6 373.7,544.2 561.8,510.7 714.8,510.7 685.5,475.6 655.7,335 685.8,184.6 865,65.2 1000,65.2 1000,85 871,85 
		703.6,196.6 676,334.9 703.9,466.7 757.1,530.5 563.6,530.5 380.4,563.1 203.2,659.7 138.6,807.2 119.6,803.6 111.7,584.2 
		95.9,584.2 94.1,669.7 85.3,838.9 32.6,838.9 19.8,865.3 19.8,897.2 31.7,915 207.9,915 	"/>
</g>
</svg>
