<?xml version="1.0" encoding="utf-8"?>
<!-- Generator: Adobe Illustrator 24.0.3, SVG Export Plug-In . SVG Version: 6.00 Build 0)  -->
<svg version="1.1" id="Layer_1" xmlns="http://www.w3.org/2000/svg" xmlns:xlink="http://www.w3.org/1999/xlink" x="0px" y="0px"
	 viewBox="0 0 1000 1000" style="enable-background:new 0 0 1000 1000;" xml:space="preserve">
<title>080520-domestic-o-outlined</title>
<g id="w">
	<polygon points="291.8,962.8 99.3,849.3 16.1,713.4 15.9,711 0,494.3 87.9,270.5 195.1,135.5 210.4,147.7 105.1,280.4 19.9,497.3 
		35.3,707.2 113.4,834.9 294.8,941.8 512.3,884.5 594.4,795 594.4,704.3 667,777 789.7,769.5 949.4,655.5 979.8,481.1 945.8,394 
		837.3,239.3 641.5,111.3 436.4,56.1 441.5,37.2 649.6,93.2 851.2,225 852.3,226.5 963.2,384.6 1000,479 967.4,666.7 796.5,788.8 
		659.4,797.1 614,751.7 614,802.6 522.9,902 	"/>
</g>
</svg>
