<?xml version="1.0" encoding="utf-8"?>
<!-- Generator: Adobe Illustrator 24.0.3, SVG Export Plug-In . SVG Version: 6.00 Build 0)  -->
<svg version="1.1" id="Layer_1" xmlns="http://www.w3.org/2000/svg" xmlns:xlink="http://www.w3.org/1999/xlink" x="0px" y="0px"
	 viewBox="0 0 1000 1000" style="enable-background:new 0 0 1000 1000;" xml:space="preserve">
<title>080520-domestic-o-outlined</title>
<g id="p">
	<path d="M385.7,1000H273.4l-68.3-30.6l-59.9-49.5l12.5-15.1l57.9,47.8l62,27.8h101.8l49.2-35.8l32.3-57.8l22.3-94l-17.7-101.7
		l-72.9-174.7l-22.3-91.6l-9.9-146l17.8-68.6l-73.7-48.5l-70.8-35.4l-83.3-7.1l1.7-19.5l87,7.5l75.2,37.6l69.1,45.4l9.7-37.2
		l94.1-90.3L593.9,0h132.5l54,10.4l55.8,47.4l18.5,63.6l-20.8,96L759.4,274l-79.6,27.4l-69,21.4l-137.7-56l-0.6-0.4l-75.7-43.9
		l-1.2-0.8l-15.4,59.1l9.6,141.1l21.5,88.5l73.1,175.2l18.8,107.8L479.3,894l-35.8,63.9L385.7,1000z M481.7,249.1L611.6,302
		l62.2-19.3l76.2-26.2l66.4-50.4l18.2-84l-15.5-53.2l-47.5-40.2l-47.1-9.1H599.3L499.2,78.5l-88.4,84.9l-10,38.3l6.3,4.2
		L481.7,249.1z"/>
</g>
</svg>
