<?xml version="1.0" encoding="utf-8"?>
<!-- Generator: Adobe Illustrator 24.0.3, SVG Export Plug-In . SVG Version: 6.00 Build 0)  -->
<svg version="1.1" id="Layer_1" xmlns="http://www.w3.org/2000/svg" xmlns:xlink="http://www.w3.org/1999/xlink" x="0px" y="0px"
	 viewBox="0 0 1000 1000" style="enable-background:new 0 0 1000 1000;" xml:space="preserve">
<title>080520-domestic-o-outlined</title>
<g id="x">
	<path d="M155.8,986.1L-0.1,903.6L27.7,732l114-33.2l72.6,63.5L201.5,777l-64.6-56.5L45,747.3L21.4,892.9L157,964.7l146.1-56.8
		l117.6-310.9l-45.5-377l-181.4,10.5l-82.2,54.8L-0.6,154.1L55.5,13.9h167.6l156.8,80.6l12.7,104.9l245.3-14.2l87.5-154.4L932,39.9
		l67.6,125.9l-95.3,138.2L779,196.6l-129.4,7.5L595,300.5l8.5,313.8l62.7,351.3h189.9l119.6-95.7l-69.1-130.5l-146,64.9l-7.9-17.9
		l162.7-72.3l85.2,161L863,985.1H649.8L584,616.3v-0.7l-8.7-320l51.1-90.1l-231.5,13.4l45.9,380.5l-0.9,2.2L318.4,922.9L155.8,986.1
		z M785.7,176.6L900.5,275l76.2-110.5L920,58.9l-183.5-8.1l-75.4,133L785.7,176.6z M21.9,150.4l93.4,109l72.2-48.1L373,200.5
		l-11.3-93.4L218.4,33.4H68.7L21.9,150.4z"/>
</g>
</svg>
