<?xml version="1.0" encoding="utf-8"?>
<!-- Generator: Adobe Illustrator 24.0.3, SVG Export Plug-In . SVG Version: 6.00 Build 0)  -->
<svg version="1.1" id="Layer_1" xmlns="http://www.w3.org/2000/svg" xmlns:xlink="http://www.w3.org/1999/xlink" x="0px" y="0px"
	 viewBox="0 0 1000 1000" style="enable-background:new 0 0 1000 1000;" xml:space="preserve">
<title>080520-domestic-o-outlined</title>
<g id="p">
	<path d="M885.2,935.3l-23.2-42.4l-6.1-33.4L746,718.8L625,603.7l-23.5,17.6L496.3,559l-133.9,23.6l-20.2-12.7l-180.8-31.1H128
		l-91.6-65.6L0,403.6V229.3l104-108.9l178-55.6h114.2l0.7,0.1l113.6,15.8l120.8,61l85.1,74.7v137.3l-35.6,77.1l308.9,355.2
		l10.3,89.1l-49.2,42.1L885.2,935.3z M880.8,886.3l14.2,26l46.4-12.9l37.9-32.5l-8.3-72.7L657.7,433.9l39.1-84.6V225.2L620.2,158
		L504.5,99.6L394.8,84.3H285l-170.3,53.2l-95.1,99.5v161.6l32,61.1l82.6,59.2H163l0.8,0.1l185.4,31.9l17.1,10.8L500,538.4
		l100.1,59.4l26.3-19.7l134.1,127.5l113.9,145.6L880.8,886.3z"/>
</g>
</svg>
