<?xml version="1.0" encoding="utf-8"?>
<!-- Generator: Adobe Illustrator 24.0.3, SVG Export Plug-In . SVG Version: 6.00 Build 0)  -->
<svg version="1.1" id="Layer_1" xmlns="http://www.w3.org/2000/svg" xmlns:xlink="http://www.w3.org/1999/xlink" x="0px" y="0px"
	 viewBox="0 0 1000 1000" style="enable-background:new 0 0 1000 1000;" xml:space="preserve">
<title>080520-domestic-o-outlined</title>
<g id="d">
	<path d="M490.9,1000l-19.7-0.3l3.3-184.9l8-261.3l-106.3-26.4l-139-143.2L228.6,233l42.8-116.3l107.2-99.5L523,3.7l1.8,19.6
		L387.1,36.2L288.2,128l-39.7,108l7.9,139.4l129.9,133.9l96.7,24l7.1-233.9l0.1-0.8L546,0l89.5,34.6l101.6,92.2l34.3,123.4
		l-17,142.9l-85.9,123.7l-154.4,44.6l-12.2-3l-7.8,257L490.9,1000z M502.6,538.2l11.2,2.8l142.5-41.2l79.1-113.9l16-134.2
		l-31.7-114.1L625,51.7L561.1,27l-51.3,274.5L502.6,538.2z"/>
</g>
</svg>
