<?xml version="1.0" encoding="utf-8"?>
<!-- Generator: Adobe Illustrator 24.0.3, SVG Export Plug-In . SVG Version: 6.00 Build 0)  -->
<svg version="1.1" id="Layer_1" xmlns="http://www.w3.org/2000/svg" xmlns:xlink="http://www.w3.org/1999/xlink" x="0px" y="0px"
	 viewBox="0 0 1000 1000" style="enable-background:new 0 0 1000 1000;" xml:space="preserve">
<title>080520-domestic-o-outlined</title>
<g id="m">
	<polygon points="214.4,1000 169.1,909.3 168.9,907.5 140.7,619 102.1,586.8 102.1,293.9 159.5,169.1 289.5,57.2 392.9,57.2 
		444.8,112.6 480.5,205 480.5,61.9 569.9,0 684.6,0 806.8,99 868.8,232.9 869,234.4 897.9,469.3 865.8,549.2 859.5,898.8 
		839.8,898.4 846.2,545.2 877.7,466.7 849.6,238.4 790.8,111.5 677.6,19.7 576.1,19.7 500.2,72.3 500.2,257.9 481.1,261.4 
		427.8,123.3 384.3,77 296.9,77 175.7,181.3 121.8,298.2 121.8,577.6 159.5,609 188.4,903.8 232.1,991.2 	"/>
</g>
</svg>
