<?xml version="1.0" encoding="utf-8"?>
<!-- Generator: Adobe Illustrator 24.0.3, SVG Export Plug-In . SVG Version: 6.00 Build 0)  -->
<svg version="1.1" id="Layer_1" xmlns="http://www.w3.org/2000/svg" xmlns:xlink="http://www.w3.org/1999/xlink" x="0px" y="0px"
	 viewBox="0 0 1000 1000" style="enable-background:new 0 0 1000 1000;" xml:space="preserve">
<title>080520-domestic-o-outlined</title>
<g id="p">
	<polygon points="488.4,1000 430.5,976.1 338.5,855.6 208.4,623.3 66.5,462.9 81.1,449.9 224.5,611.9 354.9,844.8 442.8,960 
		490.3,979.6 587.2,959 622.8,928.9 631.2,864.5 552.1,718.5 428.1,498.5 315.6,307.7 296.2,169.3 354.6,55.9 433.5,0 565.5,0 
		736,60 818.4,123.4 818.8,123.8 933.5,238.6 919.7,252.4 805.4,138.1 726.5,77.4 562.1,19.6 439.8,19.6 369.8,69.1 316.5,172.8 
		334.4,301.1 445.2,488.8 569.3,709.1 651.4,860.8 641.2,939 596.1,977.2 	"/>
</g>
</svg>
