<?xml version="1.0" encoding="utf-8"?>
<!-- Generator: Adobe Illustrator 24.0.3, SVG Export Plug-In . SVG Version: 6.00 Build 0)  -->
<svg version="1.1" id="Layer_1" xmlns="http://www.w3.org/2000/svg" xmlns:xlink="http://www.w3.org/1999/xlink" x="0px" y="0px"
	 viewBox="0 0 1000 1000" style="enable-background:new 0 0 1000 1000;" xml:space="preserve">
<title>080520-domestic-t-outlined</title>
<g id="t">
	<path d="M460.6,1001l-19.6-2V814.5l-15.4-405.1l-238.1-65.3L50.9,255.8L8.8,192.6v-85.8L122.8-1H174l146.4,63.3l182.2,39.2l0.5,0.2
		l181.2,58.5H747l62.3-34l98.4-64.3h83.6v123.8l-54.5,58.7l-140.3,92.2l-2,0.4l-270.8,45.8v188.6l-0.1,0.6l-31.5,275.5l-0.1,0.4
		L460.6,1001z M195.7,325.9l249.1,68.3l16,420.2v87.1l11.7-57.2l31.3-274V365.9L789,317.7l134.8-88.6l47.6-51.3V81.7h-57.9
		l-94.1,61.5L752,179.9h-70.9l-1.5-0.5l-182.2-58.8L314.3,81.2L169.9,18.8h-39.2L28.6,115.3v71.3l36.5,54.7L195.7,325.9z"/>
</g>
</svg>
