<?xml version="1.0" encoding="utf-8"?>
<!-- Generator: Adobe Illustrator 24.0.3, SVG Export Plug-In . SVG Version: 6.00 Build 0)  -->
<svg version="1.1" id="Layer_1" xmlns="http://www.w3.org/2000/svg" xmlns:xlink="http://www.w3.org/1999/xlink" x="0px" y="0px"
	 viewBox="0 0 1000 1000" style="enable-background:new 0 0 1000 1000;" xml:space="preserve">
<title>080520-domestic-t-outlined</title>
<g id="i">
	<polygon points="98,1000 91.8,981.4 108.6,975.8 181.8,918.3 182,918.2 239,878.1 271,863.1 271,837.9 333.8,768.5 363.8,760.2 
		422.5,739.4 508.9,662.7 559.4,609.1 575.1,566.4 576.8,529.8 605.7,505.7 620.5,462.6 643.6,427.4 609.8,381.9 620.3,322.5 
		648.7,294 654,289 610.8,240.4 644.7,169.4 709.8,58.4 586.2,53.6 481.2,18.6 487.4,0 589.7,34.1 787.8,41.7 907.6,41.7 
		908.2,61.3 724.3,72.5 661.9,179 634.1,237.1 681.2,290.2 662.4,308.1 638.5,332 630.6,377 667.5,426.7 638.3,471.3 622.4,517.3 
		596,539.3 594.6,570.3 576.5,619.7 522.3,677 432.7,756.6 369.4,779 344.5,785.9 290.6,845.5 290.6,875.6 248.9,895.2 193.5,934.1 
		118.1,993.3 	"/>
</g>
</svg>
