<?xml version="1.0" encoding="utf-8"?>
<!-- Generator: Adobe Illustrator 24.0.3, SVG Export Plug-In . SVG Version: 6.00 Build 0)  -->
<svg version="1.1" id="Layer_1" xmlns="http://www.w3.org/2000/svg" xmlns:xlink="http://www.w3.org/1999/xlink" x="0px" y="0px"
	 viewBox="0 0 1000 1000" style="enable-background:new 0 0 1000 1000;" xml:space="preserve">
<title>080520-domestic-t-outlined</title>
<g id="m">
	<polygon points="331.1,947.7 158.8,790.5 124.3,778 20.5,636.4 1.2,491.7 97.5,402 170.9,426.6 152.3,390.6 194.6,337.8 
		284.9,305.5 365.3,318.4 510.7,397.4 526.2,457.7 663.2,565.9 676.7,612 713.1,503.4 580.1,334 495.5,237 495.5,125.1 549,80.2 
		616.9,80.2 678.9,110.2 689.3,83.7 734.6,52.3 817.3,65.5 866.3,104.8 867.2,106.1 961.6,255.4 998.8,310.1 982.6,321.1 945.1,266 
		851.5,118 809.1,84.1 739.3,72.9 705.4,96.4 689.4,137 612.4,99.8 556.1,99.8 515.1,134.2 515.1,229.6 595.2,321.5 735,499.6 
		675.4,677.5 646.2,577.4 508.9,469 493.9,410.6 358.9,337.2 286.8,325.7 206.4,354.4 175.6,393 210.4,460.6 102.3,424.3 
		21.9,499.2 39.2,628.8 136.6,761.6 169.1,773.4 344.3,933.2 	"/>
</g>
</svg>
