<?xml version="1.0" encoding="utf-8"?>
<!-- Generator: Adobe Illustrator 24.0.3, SVG Export Plug-In . SVG Version: 6.00 Build 0)  -->
<svg version="1.1" id="Layer_1" xmlns="http://www.w3.org/2000/svg" xmlns:xlink="http://www.w3.org/1999/xlink" x="0px" y="0px"
	 viewBox="0 0 1000 1000" style="enable-background:new 0 0 1000 1000;" xml:space="preserve">
<title>080520-domestic-t-outlined</title>
<g id="g">
	<path d="M240.3,996H108.1l-17-39.7l43.4-91.2V705.8l63.4-55l-5.2-80.3l-32.7-8.8L76,464.3L43.3,339.1l147.8,102l18,80.9l2.2,33.3
		l177,47.7l165.1,25.4l-3,19.2l-166.1-25.6l-171.7-46.2l5.4,83.4l-64,55.5v154.9l-41.5,87.2l8.5,19.8h114.2l67.6-38L474.2,926
		l48.2-76.4L666,600.4l7.6-32.4l-232.8-44.2L316.2,390.3L348.1,258l3.5-2L320,173.3L462.5,4h287.5l206.6,125.3V417L784.6,589.1
		l-91.8-17.4l-8.5,36L539,859.8l-53.6,84.8l-176.9,12.9L240.3,996z M697.3,552.7l80.9,15.3l159.1-159.1V140.2L744.6,23.5H471.6
		L342.3,177l26.5,69.1l95.7-55.2h93l162,267.1l-7.6,32.3h85.4L897,336.8L792.4,192.1l-239.8-66.1l-166.8,70.9l-7.6-17.9l173-73.5
		l252.9,69.8l116.3,161.1L807.8,509.7H707.3L697.3,552.7z M170.9,544.5l20.5,5.5l-1.6-25.3l-16-72l-98.5-67.9L93.7,455L170.9,544.5z
		 M450.7,505.9l227.4,43.2l9.2-39.3H579.6l-158.4-72.6L362.1,283l-24.5,101.6L450.7,505.9z M583.8,490.3h108.1l6.8-29l-152.2-251
		h-76.9l-93.8,54.1l60.7,158.3L583.8,490.3z"/>
</g>
</svg>
