<?xml version="1.0" encoding="utf-8"?>
<!-- Generator: Adobe Illustrator 24.0.3, SVG Export Plug-In . SVG Version: 6.00 Build 0)  -->
<svg version="1.1" id="Layer_1" xmlns="http://www.w3.org/2000/svg" xmlns:xlink="http://www.w3.org/1999/xlink" x="0px" y="0px"
	 viewBox="0 0 1000 1000" style="enable-background:new 0 0 1000 1000;" xml:space="preserve">
<title>080520-domestic-t-outlined</title>
<g id="h">
	<polygon points="836.3,1000 225.9,1000 232.4,853.6 279,814.8 268.6,709.8 302.8,709.8 300.9,618.4 334.5,618.4 334.5,269.8 
		163.5,52.2 179.1,40 354.3,263 354.3,638.1 321,638.1 323,729.6 290.4,729.6 299.6,823.3 251.8,863.2 246.5,980.3 816.1,980.3 
		813.7,858 816,832.5 791.8,807.3 791.8,724.6 757.8,698.4 750.2,618.3 720,610.3 720,550 364.4,563.4 359,545 419.7,508.6 
		719.1,466.4 714.1,414.4 714.1,414 712.1,129.2 751.9,0 770.8,5.8 731.9,132.1 733.8,413.4 740.6,483.3 426.4,527.6 402.1,542.2 
		739.7,529.5 739.7,595.1 768.5,602.8 776.6,688 811.5,714.8 811.5,799.3 836.5,825.2 833.5,858.7 	"/>
</g>
</svg>
