<?xml version="1.0" encoding="utf-8"?>
<!-- Generator: Adobe Illustrator 24.0.3, SVG Export Plug-In . SVG Version: 6.00 Build 0)  -->
<svg version="1.1" id="Layer_1" xmlns="http://www.w3.org/2000/svg" xmlns:xlink="http://www.w3.org/1999/xlink" x="0px" y="0px"
	 viewBox="0 0 1000 1000" style="enable-background:new 0 0 1000 1000;" xml:space="preserve">
<title>080520-domestic-t-outlined</title>
<g id="i">
	<path d="M822,1000H303l-0.9-0.2l-195.3-36.2l-73.3-51.3l11.2-16.1l69.8,48.9l190.2,35.2h511.5L943.6,900l-10.2-35.5l-118,6.5
		l-56.9,42.7L475.2,950l-1.6-0.3l-281.1-59.1l10.3-61.8l372,58.4L775,813.7L764.5,799v12.4l-195,60l-364-51l-59.3-79.1l463.4,59.8
		l178.3-102.8v-0.2l-167.3,80.3L172,741l26.1-39.1l549.6-63.5l-13.3-31.2l-557.2,75.3l65.2-52.2l2.2-0.5L727,525.1l-7.8-19.5
		l-453.7-43.2v-52.6l391.5-87l-379-24.8v-54.5l272.4-9l-261.6-21.8l0.4-19.6l295-14l-302.5-23.7l0.4-19.6l442.5-14l-0.6-9.3H278.5
		l9.6-76.9h444.1l77.6-16.2H82V0h823l2,19.4l-172.7,36H305.4L300.7,93h441.8l3,47.9l-284.1,9l279.8,21.9l-0.3,19.6l-301.3,14.4
		L719.7,229l-0.5,19.6l-421.7,14v17.1l429.1,28l1.5,19.4l-443.2,98.5v19L733,487.2l20.8,52.1L251,648.6l-6.4,5.1l501.9-67.8l29.6,69
		l-566.7,65.4l-2.6,3.9l410.2,34.2l190.6-91.5v42.7l-58.5,33.8l57,79.8l-229.2,84l-357.9-56.1l-4,24.1l261.1,55L750.9,895l57.6-43.2
		L948,844l18.5,64.7L822,1000z M216.2,802.2l351.6,49.2l177-54.5v-51.2l-131.2,75.7l-423.9-54.7L216.2,802.2z"/>
</g>
</svg>
