<?xml version="1.0" encoding="utf-8"?>
<!-- Generator: Adobe Illustrator 24.0.3, SVG Export Plug-In . SVG Version: 6.00 Build 0)  -->
<svg version="1.1" id="Layer_1" xmlns="http://www.w3.org/2000/svg" xmlns:xlink="http://www.w3.org/1999/xlink" x="0px" y="0px"
	 viewBox="0 0 1000 1000" style="enable-background:new 0 0 1000 1000;" xml:space="preserve">
<title>080520-domestic-t-outlined</title>
<g id="y">
	<path d="M527.8,1001.2h-29.3V569.8l-25.9-9v-38.8l-26.6,31.3L400.4,523v-76.6h-42.9V344.3l-54.3-18.9l30.4-95.7l-18.9-17.8
		l17.4-66.1h-36.1l9.8-136.3l19.8,1.4L317.1,126h40.6l-21,79.5l19.4,18.3L327.9,313l49.4,17.2v96.4h42.9v85.8l22.1,14.7l50.1-58.9
		v78.5l21.3,7.4l13-8.1v-32.8l18.6-4.7l8.8,16.1l26.8-14.9v-18.8h22.5V406l26.8,19.1l17.1-7.9l-19.5-104.6l29,7.2l22.4-13.6
		l-37.6-87.5l22.6-15.8l-26.9-63.5l43.1-4.9L665.3,25l-26.4-6.6l-3.7-14.8l19.2-4.8l0.8,3.3L683,9l19.8,143l-36.9,4.1l22.8,53.8
		l-22.5,15.8l38,88.5L660,341.1l-7.1-1.8l16.6,89.4L628,447.9l-4.8-3.4v66.2h-22.6v10.6l-54.1,30.1v5.7l-17.6,11l31.6,415.4
		L527.8,1001.2z M518.3,981.4h4.5l17-9.3L518.3,690V981.4z"/>
</g>
</svg>
