<?xml version="1.0" encoding="utf-8"?>
<!-- Generator: Adobe Illustrator 24.0.3, SVG Export Plug-In . SVG Version: 6.00 Build 0)  -->
<svg version="1.1" id="Layer_1" xmlns="http://www.w3.org/2000/svg" xmlns:xlink="http://www.w3.org/1999/xlink" x="0px" y="0px"
	 viewBox="0 0 1000 1000" style="enable-background:new 0 0 1000 1000;" xml:space="preserve">
<title>080520-domestic-t-outlined</title>
<g id="w">
	<polygon points="360.4,799 240.6,799 125.6,639.2 125.3,638.8 1.1,418.3 18.2,408.7 142.1,628.7 250.6,779.4 354.3,779.4 
		498.7,680.1 520.6,636.3 431.1,373.7 313.9,373.7 309.7,355 555.3,240.2 643.8,336.1 740.3,558.7 801.1,603.8 919.8,561.9 
		977.4,477.1 932.3,328.5 836.3,223.7 705.7,268.8 699.4,250.3 842,201 949.7,318.5 998.9,480.4 932.4,578.2 797.8,625.7 
		724.4,571.3 627.2,346.9 550.6,264 357.9,354.1 445.1,354.1 541.8,637.8 514,693.4 	"/>
</g>
</svg>
