<?xml version="1.0" encoding="utf-8"?>
<!-- Generator: Adobe Illustrator 24.0.3, SVG Export Plug-In . SVG Version: 6.00 Build 0)  -->
<svg version="1.1" id="Layer_1" xmlns="http://www.w3.org/2000/svg" xmlns:xlink="http://www.w3.org/1999/xlink" x="0px" y="0px"
	 viewBox="0 0 1000 1000" style="enable-background:new 0 0 1000 1000;" xml:space="preserve">
<title>080520-domestic-t-outlined</title>
<g id="k">
	<polygon points="515.1,999 90.1,342 128.5,342 211.5,434.6 878.8,550.4 872.7,541.7 771.7,527.5 510.6,208.2 466.3,224.1 
		426,174.6 394.2,193.6 358.6,148.3 320.2,164.4 292.6,124.6 264.5,143.3 233.3,102.8 217.3,115.6 198.7,90.6 168.8,117.2 
		147.1,76.6 133.6,97.4 77.8,11.8 94.3,1 133.5,61.1 148.6,37.6 174.4,85.8 201.6,61.6 220.9,87.4 236.7,74.8 268.9,116.7 
		297.8,97.4 327.3,140 364.9,124.3 399,167.8 430.6,148.8 472.8,200.8 517.1,184.9 782.1,509 884,523.3 922.2,578 201.4,452.9 
		143.7,388.6 531.7,988.3 	"/>
</g>
</svg>
