<?xml version="1.0" encoding="utf-8"?>
<!-- Generator: Adobe Illustrator 24.0.3, SVG Export Plug-In . SVG Version: 6.00 Build 0)  -->
<svg version="1.1" id="Layer_1" xmlns="http://www.w3.org/2000/svg" xmlns:xlink="http://www.w3.org/1999/xlink" x="0px" y="0px"
	 viewBox="0 0 1000 1000" style="enable-background:new 0 0 1000 1000;" xml:space="preserve">
<title>080520-domestic-t-outlined</title>
<g id="c">
	<polygon points="496.6,1000 324.3,848.4 283.7,365.1 324.6,172.1 448.4,23.4 541.9,0 674.8,73.3 716.3,251.9 593.4,329.1 
		491.8,285.5 491.8,184.6 561.2,167 566.1,186 511.3,199.9 511.3,272.6 591.7,307.1 694.1,242.7 657.7,86.2 539.2,20.9 459.4,40.8 
		342.8,180.9 303.4,366.4 343.1,838.9 502.1,978.8 654.7,946.6 694.1,845.3 651.2,789.6 602.7,766.7 552,809 572.9,869.5 
		554.4,875.9 529.1,802.7 599.7,743.7 663.8,773.9 716.3,842.1 669.1,963.5 	"/>
</g>
</svg>
