<?xml version="1.0" encoding="utf-8"?>
<!-- Generator: Adobe Illustrator 24.0.3, SVG Export Plug-In . SVG Version: 6.00 Build 0)  -->
<svg version="1.1" id="Layer_1" xmlns="http://www.w3.org/2000/svg" xmlns:xlink="http://www.w3.org/1999/xlink" x="0px" y="0px"
	 viewBox="0 0 1000 1000" style="enable-background:new 0 0 1000 1000;" xml:space="preserve">
<title>080520-domestic-t-outlined</title>
<g id="v">
	<polygon points="526.5,1000 165.5,218.7 165.5,101.5 218.9,43.9 295.7,0 363.4,0 438.7,36.3 475.6,98.7 475.6,170.2 392.6,211.7 
		343.1,186.9 320.8,131.1 338.7,123.9 358.3,172.9 392.6,190.1 456.3,158.2 456.3,104 425.1,51.2 359,19.3 300.9,19.3 231,59.2 
		184.9,109.1 184.9,214.5 525.9,952.5 724.1,489.4 815.1,235.9 815.1,136.5 751,65 681.5,37.7 625.3,37.7 564.2,66.4 534.3,159.8 
		562.1,197.6 621.5,213.3 667.4,143.2 683.6,153.8 630,235.6 550.5,214.6 512.9,163.3 548.4,52.5 620.9,18.3 685.2,18.3 762.4,48.7 
		834.5,129.1 834.5,239.2 833.9,240.8 742.1,496.5 742,496.8 	"/>
</g>
</svg>
