<?xml version="1.0" encoding="utf-8"?>
<!-- Generator: Adobe Illustrator 24.0.3, SVG Export Plug-In . SVG Version: 6.00 Build 0)  -->
<svg version="1.1" id="a" xmlns="http://www.w3.org/2000/svg" xmlns:xlink="http://www.w3.org/1999/xlink" x="0px" y="0px"
	 viewBox="0 0 1000 1000" style="enable-background:new 0 0 1000 1000;" xml:space="preserve">
<title>080520-domestic-t-outlined</title>
<polygon points="318.4,1000 217.7,866.6 282.6,762.8 356.5,514.1 386.5,231.5 444.2,161.2 496,0 630.4,300.9 688.1,418.8 702.9,527 
	767.8,637.5 767.8,764.9 755.6,862.5 782.3,937.2 714.9,978.3 640.1,955.9 648.3,919.2 619.3,893.9 563.6,945.2 550.6,931 
	619,868.1 669.5,912.2 662.8,942.6 712.2,957.4 758.9,929 736,864.7 748.6,763.7 748.6,642.7 684.4,533.5 669.4,424.5 612.9,308.9 
	499,53.7 461.4,170.6 405,239.3 375.4,517.9 300.3,770.7 241,865.6 324,975.5 385.6,943.5 499.4,935.9 500.6,955.1 390.9,962.4 "/>
</svg>
