<?xml version="1.0" encoding="utf-8"?>
<!-- Generator: Adobe Illustrator 24.0.3, SVG Export Plug-In . SVG Version: 6.00 Build 0)  -->
<svg version="1.1" id="Layer_1" xmlns="http://www.w3.org/2000/svg" xmlns:xlink="http://www.w3.org/1999/xlink" x="0px" y="0px"
	 viewBox="0 0 1000 1000" style="enable-background:new 0 0 1000 1000;" xml:space="preserve">
<title>080520-domestic-t-outlined</title>
<g id="u">
	<polygon points="758.8,1000 597.1,1000 568.3,986.7 587,657.2 569.4,580.1 530.6,530.6 427.1,476.6 307.4,428.3 307,428 
		239.9,393.3 186,362.3 195.8,345.2 249.5,376 315.7,410.2 435.4,458.6 543.6,515 587.7,571.4 606.9,655.5 606.9,656.9 588.8,974.4 
		601.5,980.2 739,980.2 739,898.6 711.8,667.6 683,636.3 741.6,338.4 794.2,146.3 794.2,0 814,0 814,149 813.7,150.2 760.8,343.2 
		704.3,630.3 730.7,658.9 758.8,897.5 	"/>
</g>
</svg>
