<?xml version="1.0" encoding="utf-8"?>
<!-- Generator: Adobe Illustrator 24.0.3, SVG Export Plug-In . SVG Version: 6.00 Build 0)  -->
<svg version="1.1" id="Layer_1" xmlns="http://www.w3.org/2000/svg" xmlns:xlink="http://www.w3.org/1999/xlink" x="0px" y="0px"
	 viewBox="0 0 1000 1000" style="enable-background:new 0 0 1000 1000;" xml:space="preserve">
<title>080520-domestic-t-outlined</title>
<g id="w">
	<path d="M34,1000.8V722.3l209-178.3l159.7-112.3L75.7,314l-30.5-44l69-84.7l108.6,38.1l165.9,105l0.8,0.8l74.3,76.9l30.6-15.3
		l292.1-283.9l1-0.6L966-0.8v160.6l-61.3,58.3L612.9,380.2l148.3,8.9h96.6L966,453.4v126.4l-252.4-47.4l-0.5-0.2l-204.6-61.5
		l-71.3,184.8L219.3,870.7L34,1000.8z M53.3,731.2v232.5l153.5-107.8l213.8-211l76.2-197.7l221.2,66.6l228.5,42.9v-92.2l-94.1-56
		h-92.2l-214.8-12.9l347.6-193.1l53.5-50.9V33.3l-148.4,89L505.6,406.7l-45.9,23.1l-83.4-86.2l-162-102.7L120.6,208l-51.2,62.9
		l18.7,27l356.1,128.2L254.5,559.5L53.3,731.2z"/>
</g>
</svg>
