<?xml version="1.0" encoding="utf-8"?>
<!-- Generator: Adobe Illustrator 24.0.3, SVG Export Plug-In . SVG Version: 6.00 Build 0)  -->
<svg version="1.1" id="Layer_1" xmlns="http://www.w3.org/2000/svg" xmlns:xlink="http://www.w3.org/1999/xlink" x="0px" y="0px"
	 viewBox="0 0 669 1000" style="enable-background:new 0 0 669 1000;" xml:space="preserve">
<style type="text/css">
	.st0{fill:#EFEFFF;}
</style>
<title>test</title>
<g id="v">
	<polygon class="st0" points="359,962.6 25,239.7 25,131.3 74.4,78 145.5,37.4 208.1,37.4 277.8,70.9 311.9,128.7 311.9,194.8 
		235.1,233.2 189.3,210.3 168.7,158.7 185.3,152 203.4,197.4 235.1,213.2 294,183.8 294,133.6 265.2,84.7 204,55.2 150.2,55.2 
		85.6,92.2 42.9,138.3 42.9,235.8 358.4,918.7 541.9,490.2 626.1,255.6 626.1,163.6 566.8,97.5 502.5,72.2 450.4,72.2 393.9,98.8 
		366.2,185.3 391.9,220.2 446.9,234.7 489.4,169.9 504.4,179.7 454.8,255.3 381.3,235.9 346.4,188.5 379.3,85.9 446.4,54.3 
		505.8,54.3 577.3,82.4 644,156.8 644,258.7 643.5,260.2 558.5,496.8 558.4,497 	"/>
</g>
</svg>
