<?xml version="1.0" encoding="utf-8"?>
<!-- Generator: Adobe Illustrator 24.0.3, SVG Export Plug-In . SVG Version: 6.00 Build 0)  -->
<svg version="1.1" id="Layer_1" xmlns="http://www.w3.org/2000/svg" xmlns:xlink="http://www.w3.org/1999/xlink" x="0px" y="0px"
	 viewBox="0 0 1000 1000" style="enable-background:new 0 0 1000 1000;" xml:space="preserve">
<title>080520-domestic-i-outlined</title>
<g id="p">
	<path d="M238.7,1000L137.6,805.9l1.5-4l165.2-435.3l-85.7-66.1l-0.9-1.2L27.3,20.6L43.1,9.8l189.6,277.4l78.6,60.7L443.4,0
		l97.1,71.8l-100.6,274l532.8,63.1l-7.9,164.7l-546-112.1L343,396.6l-22.9-17.7L158.6,804.7l75.3,144.5l95.5-319.5l18.4,5.5
		L238.7,1000z M427.6,443.7l519.2,106.6l6-124.5l-539.2-63.9l104-283.3l-65.2-48.2L327.3,360.1l28.1,21.7L427.6,443.7z"/>
</g>
</svg>
