<?xml version="1.0" encoding="utf-8"?>
<!-- Generator: Adobe Illustrator 24.0.3, SVG Export Plug-In . SVG Version: 6.00 Build 0)  -->
<svg version="1.1" id="Layer_1" xmlns="http://www.w3.org/2000/svg" xmlns:xlink="http://www.w3.org/1999/xlink" x="0px" y="0px"
	 viewBox="0 0 1000 1000" style="enable-background:new 0 0 1000 1000;" xml:space="preserve">
<title>080520-domestic-i-outlined</title>
<g id="z">
	<polygon points="904.9,843.2 -0.1,843.2 60.1,476.2 60.1,381.4 149.5,266.4 213.2,234.6 324.9,181.8 456.1,156.8 587.1,156.8 
		696.7,180.3 788.1,219.7 893.7,312.9 880.8,327.5 777.5,236.4 690.7,199 585.1,176.3 458,176.3 331,200.5 221.6,252.2 162.2,281.9 
		79.6,388.1 79.6,477.8 79.5,478.5 23,823.7 900.3,823.7 977.3,785.2 968.1,748.2 871,704.8 719.4,693.6 451.5,693.6 222.9,723.1 
		42.8,796.4 35.4,778.3 217.9,704 219.2,703.9 450.3,674.1 720.5,674.1 875.9,685.5 984.7,734.3 1000.1,795.6 	"/>
</g>
</svg>
