<?xml version="1.0" encoding="utf-8"?>
<!-- Generator: Adobe Illustrator 24.0.3, SVG Export Plug-In . SVG Version: 6.00 Build 0)  -->
<svg version="1.1" id="Layer_1" xmlns="http://www.w3.org/2000/svg" xmlns:xlink="http://www.w3.org/1999/xlink" x="0px" y="0px"
	 viewBox="0 0 1000 1000" style="enable-background:new 0 0 1000 1000;" xml:space="preserve">
<title>080520-domestic-i-outlined</title>
<g id="m">
	<polygon points="345,1000 311.5,962.8 264.8,776.3 144.2,237.1 151.8,163.3 205.3,104 268.8,85.4 660.1,0 709.3,11.4 763.5,37.5 
		793.3,124.1 793.4,124.6 855.8,392.5 587.3,452.5 595.2,481.1 576.2,486.3 562.9,437.8 832.1,377.6 774.3,129.5 747.5,51.7 
		702.7,30 659.9,20.2 273.3,104.5 216.2,121.3 170.7,171.7 164.1,235.9 284,771.8 329.4,953.3 359.6,986.8 	"/>
</g>
</svg>
