<?xml version="1.0" encoding="utf-8"?>
<!-- Generator: Adobe Illustrator 24.0.3, SVG Export Plug-In . SVG Version: 6.00 Build 0)  -->
<svg version="1.1" id="Layer_1" xmlns="http://www.w3.org/2000/svg" xmlns:xlink="http://www.w3.org/1999/xlink" x="0px" y="0px"
	 viewBox="0 0 1000 1000" style="enable-background:new 0 0 1000 1000;" xml:space="preserve">
<title>080520-domestic-i-outlined</title>
<g id="v">
	<path d="M340.9,1000h-49.4l-39.4-118.3l-77.4-105.9l-85.4-48l276-82.8l2.5-20L217.3,455.6l24.1-324.4l-42.1,183.2L90.6,690.8
		L61.4,903.6l-19.6-2.7l29.4-214.2l109-377.2L251.3,0l19.5,2.9l-33.2,445.8l150.9,169.8l-2.5,20.3l23.7-7.1l182,152.4l101.1,16.2
		h179l57.4-2l24.1-6l4.8,19.2l-26.1,6.5l-60,2.1H691.3l-108.1-17.4l-178-149l-21.9,6.6L340.9,1000z M305.8,980.2h17.6l39.2-313.8
		l-223.1,66.9l48.6,27.3l81.7,111.8L305.8,980.2z"/>
</g>
</svg>
