<?xml version="1.0" encoding="utf-8"?>
<!-- Generator: Adobe Illustrator 24.0.3, SVG Export Plug-In . SVG Version: 6.00 Build 0)  -->
<svg version="1.1" id="a" xmlns="http://www.w3.org/2000/svg" xmlns:xlink="http://www.w3.org/1999/xlink" x="0px" y="0px"
	 viewBox="0 0 1000 1000" style="enable-background:new 0 0 1000 1000;" xml:space="preserve">
<title>080520-domestic-s-outlined</title>
<path d="M510.5,999.8l-29.8-135.1l-70.1-130.2l-31-115.9l7.2-29.5l-6.6,1.7l-15.3-58.5h36L428.4,421l63-168l11.2-80.6l-11.9-35
	L526.6,0.2l19.5,3.9L523,170.5l7,20.6l8,74.1l23.8,65.4l47.6,172l8.5,9.1l5.7,42.2l10.5,37.8l-5,2.3l6,44.6l-35.2,29.8L522,630.7
	l41.8-67.5l38.1-13.2l-10.4-37.3l-13.5-14.4l-39.5,18.9l-70.2,35.1h-51.9l-16.4,66.1l29.1,108.8l70.3,130.6l30.4,137.8L510.5,999.8z
	 M550.5,622.4l46.4,22.5l17-14.4l-5.9-43.2l-9.8-15.1l-21.4,7.3L550.5,622.4z M390.7,552.3l2.7,10.4l2.6-10.4H390.7z M421.4,532.4
	h42.3l66.3-33.1l51.1-24.4l-38.2-138.1l-24.4-67l-4-37.5l-3.5,25.7l-63.4,169L421.4,532.4z"/>
</svg>
