<?xml version="1.0" encoding="utf-8"?>
<!-- Generator: Adobe Illustrator 24.0.3, SVG Export Plug-In . SVG Version: 6.00 Build 0)  -->
<svg version="1.1" id="Layer_1" xmlns="http://www.w3.org/2000/svg" xmlns:xlink="http://www.w3.org/1999/xlink" x="0px" y="0px"
	 viewBox="0 0 1000 1000" style="enable-background:new 0 0 1000 1000;" xml:space="preserve">
<title>080520-domestic-s-outlined</title>
<g id="g">
	<polygon points="359.2,1000.3 338.8,599.4 359.1,327.4 339.2,222.5 302,139.4 319.5,130.2 498.3,420.4 476.6,569.5 600.1,543.8 
		678.2,492.6 678.2,433.7 623.7,330.4 603.4,246.2 548.6,139.5 514.9,58 455,21.6 427.5,31.6 420.8,13 457.1,-0.3 530.7,44.5 
		566.6,131.2 622,239.2 642.3,323.3 698,428.8 698,503.3 607.8,562.4 452.9,594.6 477.7,424.7 362.2,237.2 379,326.3 358.6,599.6 
		378.9,999.3 	"/>
</g>
</svg>
