<?xml version="1.0" encoding="utf-8"?>
<!-- Generator: Adobe Illustrator 24.0.3, SVG Export Plug-In . SVG Version: 6.00 Build 0)  -->
<svg version="1.1" id="Layer_1" xmlns="http://www.w3.org/2000/svg" xmlns:xlink="http://www.w3.org/1999/xlink" x="0px" y="0px"
	 viewBox="0 0 1000 1000" style="enable-background:new 0 0 1000 1000;" xml:space="preserve">
<title>080520-domestic-s-outlined</title>
<g id="h">
	<path d="M763.5,672.3L325,588.1L3.9,532.3L7.3,513L301,564l109.9-73.2l91.7-108l-11.7-14.9l-187.7-20.3l-80.8,23.6l-78.9,44.6
		L11.2,508L0,491.9l133-92.8l81.7-46.2l86.7-25.3l199.8,21.6l26.7,34L424.1,505.6l-68.4,45.6h36.5l63.6-70.3l95.7-92.2l59.3-26
		l132.1,0l150.6,14l76.4,15.3l6.6,26.5h23.4l-36.1,108.4l-69,105.2L763.5,672.3z M338.9,570.8l423.5,81.3l119.9-36.7l63.7-97.2
		l26.7-80.1h-11.5l-7.3-29.3l-63.2-12.6l-149.2-13.9H615l-52.4,22.9l-92.7,89.3l-69,76.3L338.9,570.8z"/>
</g>
</svg>
