<?xml version="1.0" encoding="utf-8"?>
<!-- Generator: Adobe Illustrator 24.0.3, SVG Export Plug-In . SVG Version: 6.00 Build 0)  -->
<svg version="1.1" id="Layer_1" xmlns="http://www.w3.org/2000/svg" xmlns:xlink="http://www.w3.org/1999/xlink" x="0px" y="0px"
	 viewBox="0 0 1000 1000" style="enable-background:new 0 0 1000 1000;" xml:space="preserve">
<title>080520-domestic-s-outlined</title>
<g id="n">
	<path d="M500.7,855.8H417l-159.5-37.2l-124-96.1L47,614.4L0,504.8l9.5-120.6l91.1-122.5l162.6-80.5l1.4-0.2l200-36.6l183,12.3
		l118.4,40l95.8,37.1l69.2,62.9l62.6,106.4l6.4,83.4L962.2,584l-67.6,79.8l-46.5,65L730.7,800l-0.5,0.2l-74.1,34L500.7,855.8z
		 M419.2,836.2h80.1l151.1-21l71-32.5l113.1-68.5l44.6-62.5l0.3-0.3l65.7-77.6l35-90.5l-5.7-74.4L915.6,309l-64.3-58.5l-92.2-35.7
		l-115.4-39l-178-12l-196.2,36l-156,77.2L28.6,391.3l-8.7,110.1L64,604.2l83.4,104.3l118.8,92L419.2,836.2z"/>
</g>
</svg>
