<?xml version="1.0" encoding="utf-8"?>
<!-- Generator: Adobe Illustrator 24.0.3, SVG Export Plug-In . SVG Version: 6.00 Build 0)  -->
<svg version="1.1" id="Layer_1" xmlns="http://www.w3.org/2000/svg" xmlns:xlink="http://www.w3.org/1999/xlink" x="0px" y="0px"
	 viewBox="0 0 1000 1000" style="enable-background:new 0 0 1000 1000;" xml:space="preserve">
<title>080520-domestic-s-outlined</title>
<g id="c">
	<path d="M351.3,1002.1l-77.7-581.7l26.5-4.2l-27.9-9.6l-53.6-175.3l74.5,41.4l62.5,17.1L468,269.5l78.7-55.4L719,65.6l44.2-67.7
		l16.7,10.9l-45.7,70.1L558.6,230.2l-82.7,58.2l-121.2,21.7l-69.2-18.8l-33.3-18.5L288.4,391l53.6,18.5l125.4-20.1l64.5-61.6
		l148.3-86l82.5-156.2l18.7,6.1l-18.1,126.6l-25.4,82.6l-138.4,70.8l-124.9,67h-109l-25.3-8.7L296,437l75.1,562.4L351.3,1002.1z
		 M410.3,418.7h59.2l120.8-64.8l131-67l22.5-73.1l9.7-68.2l-58.4,110.6l-151.2,87.7l-67.3,64.2L410.3,418.7z"/>
</g>
</svg>
