<?xml version="1.0" encoding="utf-8"?>
<!-- Generator: Adobe Illustrator 24.0.3, SVG Export Plug-In . SVG Version: 6.00 Build 0)  -->
<svg version="1.1" id="Layer_1" xmlns="http://www.w3.org/2000/svg" xmlns:xlink="http://www.w3.org/1999/xlink" x="0px" y="0px"
	 viewBox="0 0 1000 1000" style="enable-background:new 0 0 1000 1000;" xml:space="preserve">
<title>080520-domestic-s-outlined</title>
<g id="t">
	<polygon points="507.3,998 392,947.2 307.3,855.9 295.5,733.4 236.7,648.8 236.7,573 260.5,452.5 294.9,377.4 335.1,185.6 353.8,2 
		373.3,4 354.5,188.6 354.4,189.1 313.6,383.6 279.4,458.6 256.4,574.9 256.4,642.6 314.6,726.5 326.2,847.4 403.7,930.8 
		500.6,973.6 511,959 573.8,820.9 575.1,819.6 663.4,734.4 678.2,660.3 678.2,582.7 678.3,582 697.1,440.5 725,364.7 725,287.9 
		725,287.4 743.8,120.5 763.3,122.6 744.6,289 744.6,368.2 716.3,445.3 697.8,584 697.8,662.3 681.4,744.2 590.1,832.4 528.1,968.9 
			"/>
</g>
</svg>
