<?xml version="1.0" encoding="utf-8"?>
<!-- Generator: Adobe Illustrator 24.0.3, SVG Export Plug-In . SVG Version: 6.00 Build 0)  -->
<svg version="1.1" id="Layer_1" xmlns="http://www.w3.org/2000/svg" xmlns:xlink="http://www.w3.org/1999/xlink" x="0px" y="0px"
	 viewBox="0 0 1000 1000" style="enable-background:new 0 0 1000 1000;" xml:space="preserve">
<title>080520-domestic-s-outlined</title>
<g id="n">
	<path d="M613.5,1000h-49.9L451.5,783.7l-36.7,28.5l-71-37L280.5,721l-26.9-98.6V512.1l45.6-66.9l44-31.5h11.2l-2.3-10.4l102.1-42
		l58.8-92.5l0.5-0.6l107-119.9L730.5,0l15.8,11.7L635.9,160.9L528.9,280.8l-61.3,96.4l-88.9,36.6h16.7l73.9,50.8l47.6,141.3
		l-18,111.1l-37.5,42.8l114.3,220.5h24.5l19-48.1l18.3,7.2L613.5,1000z M354.9,758.8l57.8,30.1l22.3-17.2L359,433.5h-9.3l-36.1,25.8
		l-40.2,59v101.5l24.6,90.3L354.9,758.8z M379.1,433.5l69.8,310.6l31.4-35.8l16.4-100.7l-44-130.5l-63.4-43.6L379.1,433.5z"/>
</g>
</svg>
