<?xml version="1.0" encoding="utf-8"?>
<!-- Generator: Adobe Illustrator 24.0.3, SVG Export Plug-In . SVG Version: 6.00 Build 0)  -->
<svg version="1.1" id="Layer_1" xmlns="http://www.w3.org/2000/svg" xmlns:xlink="http://www.w3.org/1999/xlink" x="0px" y="0px"
	 viewBox="0 0 1000 1000" style="enable-background:new 0 0 1000 1000;" xml:space="preserve">
<title>080520-domestic-s-outlined</title>
<g id="z">
	<polygon points="857.1,901.7 769.4,883.2 757.1,860.4 757.1,900.7 621.5,900.7 526.6,823.1 462.1,573 313.1,541.7 317.1,522.5 
		478,556.4 544,812 628.5,881.1 737.5,881.1 737.5,821.6 755.9,817 782.3,866 849.5,880.1 880.4,842.4 884.8,754.4 942.2,756.4 
		977.7,348.3 950.7,321.2 910.4,188.3 773.5,117.9 703.2,117.9 558.6,141.3 527.5,219.1 526.6,220.2 290,514 289.9,514.1 16.7,824 
		2,811 275,501.3 510.4,209.1 544.6,123.8 701.7,98.3 778.2,98.3 926.7,174.7 968,310.8 998,340.9 960.1,776.7 903.4,774.6 
		899.6,849.8 	"/>
</g>
</svg>
