<?xml version="1.0" encoding="utf-8"?>
<!-- Generator: Adobe Illustrator 24.0.3, SVG Export Plug-In . SVG Version: 6.00 Build 0)  -->
<svg version="1.1" id="Layer_1" xmlns="http://www.w3.org/2000/svg" xmlns:xlink="http://www.w3.org/1999/xlink" x="0px" y="0px"
	 viewBox="0 0 1000 1000" style="enable-background:new 0 0 1000 1000;" xml:space="preserve">
<title>080520-domestic-s-outlined</title>
<g id="i">
	<polygon points="402.6,1000 355.3,905.5 355.2,903.4 343.8,623.7 363.4,622.9 374.7,900.5 413,977.2 456.5,966.3 485.8,822.1 
		485.8,672.2 469.6,483.3 407.4,359 467.2,296.2 502.6,98.7 820.4,141.2 820.4,89.2 704.5,71 568.3,90.7 468,90.7 376.3,39.3 
		160.1,19.5 161.8,0 382.2,20.2 473.1,71.1 566.9,71.1 704.7,51.2 839.9,72.5 839.9,163.6 518.5,120.6 485.4,305.5 431,362.5 
		488.7,477.9 505.3,671.8 505.3,824.1 505.1,825 473.2,982.3 	"/>
</g>
</svg>
