<?xml version="1.0" encoding="utf-8"?>
<!-- Generator: Adobe Illustrator 24.0.3, SVG Export Plug-In . SVG Version: 6.00 Build 0)  -->
<svg version="1.1" id="Layer_1" xmlns="http://www.w3.org/2000/svg" xmlns:xlink="http://www.w3.org/1999/xlink" x="0px" y="0px"
	 viewBox="0 0 1000 1000" style="enable-background:new 0 0 1000 1000;" xml:space="preserve">
<title>080520-domestic-s-outlined</title>
<g id="m">
	<polygon points="319.5,1000 257.3,785.5 257.3,449.7 320.4,263 460.8,131.1 507.7,144.4 543.8,207.6 473.4,550.5 496,715.6 
		501.7,704.9 480.3,528.9 561.8,146.2 651.2,12.1 721.2,0 742.7,44 717.7,158.1 653.5,398.7 658.2,565.3 638.5,565.9 633.7,396.4 
		634.1,395 698.6,153.2 722,46.5 710,22 662.9,30 580.3,154 500.3,529.8 522,708.7 484.7,778.7 453.4,549.8 523,211 494.5,161.2 
		466.1,153.1 337.5,274 277,453 277,782.7 338.5,994.5 	"/>
</g>
</svg>
