<?xml version="1.0" encoding="utf-8"?>
<!-- Generator: Adobe Illustrator 24.0.3, SVG Export Plug-In . SVG Version: 6.00 Build 0)  -->
<svg version="1.1" id="Layer_1" xmlns="http://www.w3.org/2000/svg" xmlns:xlink="http://www.w3.org/1999/xlink" x="0px" y="0px"
	 viewBox="0 0 1000 1000" style="enable-background:new 0 0 1000 1000;" xml:space="preserve">
<title>080520-domestic-s-outlined</title>
<g id="w">
	<path d="M647.2,1000.1H467.6l14.3-307.4l38.9-133.2l10.1-5.7l-9.8-9.2L439,388.2l-0.3-1.3L352.8,4.7l19.3-4.3l85.6,380.9
		l79.5,151.2l11.9,11.2l19.6-11v-93.2l5.9-123.6l-13.8-171.5l4-144.5l19.8,0.5l-3.9,143.4l13.8,171.7v0.6l-5.9,124v104.2L564.2,558
		l9.6,9l30.3,139.8L647.2,1000.1z M488.3,980.3h136L584.6,710l-28.9-132.8l-9.6-9.1l-8.5,4.8l-36,123.2L488.3,980.3z"/>
</g>
</svg>
