<?xml version="1.0" encoding="utf-8"?>
<!-- Generator: Adobe Illustrator 24.0.3, SVG Export Plug-In . SVG Version: 6.00 Build 0)  -->
<svg version="1.1" id="Layer_1" xmlns="http://www.w3.org/2000/svg" xmlns:xlink="http://www.w3.org/1999/xlink" x="0px" y="0px"
	 viewBox="0 0 1000 1000" style="enable-background:new 0 0 1000 1000;" xml:space="preserve">
<title>080520-domestic-d-outlined</title>
<g id="v">
	<polygon points="983.3,909.6 928.8,851.7 822.9,814.2 569.4,757.8 383.7,650.7 228.2,424.5 152.4,321.1 0,238 9.4,220.7 
		165.7,305.9 244.4,413.2 397.5,635.9 576.6,739.2 828.3,795.2 828.9,795.4 939.9,834.8 971.2,868 960.6,827.5 915.6,785.7 
		731.8,749.3 731.2,749.1 551.1,687.3 433,608.6 378.9,543.7 378.5,542.8 258.7,327.1 258.4,326 205.2,149.6 209.5,106.6 252,90.4 
		259,108.8 227.9,120.6 225.2,147.7 277,319.3 395.3,532.5 446.4,593.8 559.9,669.5 737,730.2 925,767.5 978.2,816.9 1000,900.4 	
		"/>
</g>
</svg>
