<?xml version="1.0" encoding="utf-8"?>
<!-- Generator: Adobe Illustrator 24.0.3, SVG Export Plug-In . SVG Version: 6.00 Build 0)  -->
<svg version="1.1" id="a" xmlns="http://www.w3.org/2000/svg" xmlns:xlink="http://www.w3.org/1999/xlink" x="0px" y="0px"
	 viewBox="0 0 1000 1000" style="enable-background:new 0 0 1000 1000;" xml:space="preserve">
<title>080520-domestic-d-outlined</title>
<path d="M776.2,1001.2L659.5,675.4L543.6,526.9l-0.3,0.7l-114.2,30.1l44.5-152.9l66.3,85l24.6-49.3l-37.7-94.2L454.7,65.4
	l-6.1,103.3l-29.7,133.6L361.2,437l19.6,83.5l-88.5,165v104.7l-69.5,134.1l-17.7-9.2l67.3-129.8V680.5l87.3-162.7l-19.4-82.6
	l59.6-139L428.8,166l9.7-165.3l19.6-1.9l87.8,341.4l40.5,101.3l-32.9,65.8l123.6,158.5l117.8,328.8L776.2,1001.2z M481.9,447.8
	l-23.8,81.7l71.4-18.8l0.6-1.1L481.9,447.8z"/>
</svg>
