<?xml version="1.0" encoding="utf-8"?>
<!-- Generator: Adobe Illustrator 24.0.3, SVG Export Plug-In . SVG Version: 6.00 Build 0)  -->
<svg version="1.1" id="Layer_1" xmlns="http://www.w3.org/2000/svg" xmlns:xlink="http://www.w3.org/1999/xlink" x="0px" y="0px"
	 viewBox="0 0 1000 1000" style="enable-background:new 0 0 1000 1000;" xml:space="preserve">
<title>080520-domestic-d-outlined</title>
<g id="d">
	<path d="M547.5,1000H350.8l-126-46.1v-67.6l73.8-50.1L358,747l50.1-114l7.2-30l7.6-229.7l-10.1-131.8v-0.2L406.8,0L508,164.9
		l128.5,206l61.5,118l48.7,161.5L775.2,832l-74.8,144.3L547.5,1000z M354.2,980.9h191.9l141.8-22l67.4-130.1L728,654.7l-47.8-158.6
		l-60.4-115.7L491.7,175l-64-104.4l4.2,170L442.1,373l-7.7,232.6l-8,33.5l-51.5,117.1l-0.5,0.7l-62,93l-68.5,46.5v44.1L354.2,980.9z
		"/>
</g>
</svg>
