<?xml version="1.0" encoding="utf-8"?>
<!-- Generator: Adobe Illustrator 24.0.3, SVG Export Plug-In . SVG Version: 6.00 Build 0)  -->
<svg version="1.1" id="Layer_1" xmlns="http://www.w3.org/2000/svg" xmlns:xlink="http://www.w3.org/1999/xlink" x="0px" y="0px"
	 viewBox="0 0 1000 1000" style="enable-background:new 0 0 1000 1000;" xml:space="preserve">
<title>080520-domestic-d-outlined</title>
<g id="o">
	<path d="M489.8,1000L339,969.1l-144.5-66.5l-134.2-161L3.2,570.3l13.4-174.6l83.7-200.8L234.9,70.4l117.7-43.7L489.6,0l158.2,13.5
		l114.4,67.3l117,93.6l70.6,111l47,147.7l-10.1,174.2l-53.8,159.8L761.9,929.5l-132,50.4L489.8,1000z M345.2,950.4l145.2,29.8
		L625,960.8l126.3-48.2L915.8,756l51.4-152.7l9.7-167.9l-45.1-141.8l-67.5-106.1L751,96.9L641.7,32.6l-151-12.9L357.9,45.6
		L245.3,87.4L116.8,206.4L36,400.3L23.1,567.8L77.8,732l129,154.8L345.2,950.4z"/>
</g>
</svg>
