<?xml version="1.0" encoding="utf-8"?>
<!-- Generator: Adobe Illustrator 24.0.3, SVG Export Plug-In . SVG Version: 6.00 Build 0)  -->
<svg version="1.1" id="Layer_1" xmlns="http://www.w3.org/2000/svg" xmlns:xlink="http://www.w3.org/1999/xlink" x="0px" y="0px"
	 viewBox="0 0 1000 1000" style="enable-background:new 0 0 1000 1000;" xml:space="preserve">
<title>080520-domestic-d-outlined</title>
<g id="b">
	<path d="M366.4,942.3l-107.2-71.5l-0.5-0.5L139.9,762.9l-66.5-33.2L0,707l1.2-19.2l128.4-22.3l179.3-162.5l83.4-139v-62.3
		l105.8-119l166.7-125l144.5,120.4l109.4,224.5l81.3,180l-39.2,150.5l-76.6-26.1l-247.5-57.6l-36-36l-29-25.4v36.7l46.6,154.4
		l-78.9,109.3L366.4,942.3z M271.4,855.2l98.1,65.4l157.8-49l69.4-96L552,627.8v-83.1l62.5,54.7l32.2,32.2l243,56.5l0.5,0.2l57,19.4
		l32.1-123.2l-78.4-173.5L793.4,190.5L664.2,82.8L511.5,197.3L412,309.3v60.3l-87.7,146.2L138.6,684l-93.5,16.2l35.6,11l70.4,35.2
		L271.4,855.2z"/>
</g>
</svg>
