<?xml version="1.0" encoding="utf-8"?>
<!-- Generator: Adobe Illustrator 24.0.3, SVG Export Plug-In . SVG Version: 6.00 Build 0)  -->
<svg version="1.1" id="Layer_1" xmlns="http://www.w3.org/2000/svg" xmlns:xlink="http://www.w3.org/1999/xlink" x="0px" y="0px"
	 viewBox="0 0 1000 1000" style="enable-background:new 0 0 1000 1000;" xml:space="preserve">
<title>080520-domestic-d-outlined</title>
<g id="p">
	<polygon points="408.5,999.5 389,995.7 424.9,814.2 425.1,813.8 522.3,492.3 547.1,333 527.1,343 428.3,357.7 369.7,318.7 
		333.2,262.8 333.2,200.4 356.6,134.4 411.2,92.8 497.5,90.7 560.5,138.5 583.7,216.8 647.8,0.4 666.8,6.1 583.7,286.9 543.3,150.4 
		491,110.7 418.2,112.6 373.4,146.6 353,203.9 353,256.8 384.1,304.4 432.9,336.9 521,323.8 572.7,298 541.7,496.7 541.5,497.4 
		444.2,819.1 	"/>
</g>
</svg>
