<?xml version="1.0" encoding="utf-8"?>
<!-- Generator: Adobe Illustrator 24.0.3, SVG Export Plug-In . SVG Version: 6.00 Build 0)  -->
<svg version="1.1" id="Layer_1" xmlns="http://www.w3.org/2000/svg" xmlns:xlink="http://www.w3.org/1999/xlink" x="0px" y="0px"
	 viewBox="0 0 1000 1000" style="enable-background:new 0 0 1000 1000;" xml:space="preserve">
<title>080520-domestic-m-outlined</title>
<g id="y">
	<path d="M641.5,1001.2h-88.7l-129.6-15.1L310.1,928l-70.9-95.6l-86.4-640.6l25.1-98.6l93.5-63.9L423.7-1.2l134.7,42.8l80.7,74.5
		l30.8,120.2l-15.5,90.2L581,425.9l-63.2,44.3l42.2,26.7l176.9,37.5l110.3,176v107l-119,140.4L641.5,1001.2z M553.9,981.5h82.9
		l79-39.5l111.7-131.9V716L724.8,551.8l-172.2-36.5L482.3,471l84.8-59.3l68.7-93l14-81.4l-28.3-110.5l-73.2-67.6L422.6,19.2
		L279.1,47.8l-84,57.4L172.8,193L258,824.8l65.2,87.8L429,967L553.9,981.5z"/>
</g>
</svg>
