<?xml version="1.0" encoding="utf-8"?>
<!-- Generator: Adobe Illustrator 24.0.3, SVG Export Plug-In . SVG Version: 6.00 Build 0)  -->
<svg version="1.1" id="Layer_1" xmlns="http://www.w3.org/2000/svg" xmlns:xlink="http://www.w3.org/1999/xlink" x="0px" y="0px"
	 viewBox="0 0 1000 1000" style="enable-background:new 0 0 1000 1000;" xml:space="preserve">
<title>080520-domestic-m-outlined</title>
<g id="y">
	<path d="M744.5,1000.6H580.2l-352.9-8.3l-27.4-44.2l46.9-60l43-33.9l36.4-106.9l18.5,6.3l-38.3,112.4l-45.7,36.1l-37.1,47.3
		l14.6,23.5l342.2,8h153.1l47-74.7V778.5L684,583L574.1,435.7L492,236.3L416.2,50.2l-43.6-27.7l-98.3,59.7l-13.1,78.8l0.8,26.9
		l15.8-87.6l88.9-28.3l92,111.9l52.1,225v244.4l-52.2,79l-89.9,2.7l-70.2-162.3l-47.4-102l-9.4-311L256.5,70L372.8-0.6L431.9,37
		l78.2,191.9l81.2,197.1l109.5,146.8l0.4,0.8l99,200.4V912L744.5,1000.6z M270.5,465.9l46,98.7l65,150.2l66.4-2l43.4-65.6V411
		l-50.5-218.3l-80.7-98.1l-65,20.7l-19.7,109l55.5,294.9l53.6,143l32.7,4.3L302,293.7l16.8-81.8l19.2,4l-15.8,76.8l122.8,397.1
		l-74.6-9.7L312,524.5l-0.2-0.8l-47.1-250.5L270.5,465.9z"/>
</g>
</svg>
