<?xml version="1.0" encoding="utf-8"?>
<!-- Generator: Adobe Illustrator 24.0.3, SVG Export Plug-In . SVG Version: 6.00 Build 0)  -->
<svg version="1.1" id="Layer_1" xmlns="http://www.w3.org/2000/svg" xmlns:xlink="http://www.w3.org/1999/xlink" x="0px" y="0px"
	 viewBox="0 0 1000 1000" style="enable-background:new 0 0 1000 1000;" xml:space="preserve">
<title>080520-domestic-m-outlined</title>
<g id="y">
	<polygon points="420.7,1000.2 293.9,954.3 189.6,796.6 171.1,593.1 205,392.2 257,73.3 388.4,13.4 513.7,-0.2 609,87 673.1,209.9 
		673.1,383.8 613,476.6 488.1,539.1 367.1,508.8 290.7,406.1 256,380.7 256,209.7 275.6,209.7 275.6,370.7 304.7,392 378.7,491.5 
		485.8,518.3 599.5,461.5 653.5,378 653.5,214.7 593.2,99.1 507,20.3 393.7,32.6 274.6,86.8 224.4,395.4 190.9,593.9 208.7,789.9 
		306.7,938.1 423.6,980.4 639,970.3 773.8,862.9 808.9,709.9 788.7,589.7 706,376.6 724.3,369.6 807.7,584.4 828.9,710.5 
		791.4,873.9 646.2,989.6 	"/>
</g>
</svg>
