<?xml version="1.0" encoding="utf-8"?>
<!-- Generator: Adobe Illustrator 24.0.3, SVG Export Plug-In . SVG Version: 6.00 Build 0)  -->
<svg version="1.1" id="Layer_1" xmlns="http://www.w3.org/2000/svg" xmlns:xlink="http://www.w3.org/1999/xlink" x="0px" y="0px"
	 viewBox="0 0 1000 1000" style="enable-background:new 0 0 1000 1000;" xml:space="preserve">
<title>080520-domestic-m-outlined</title>
<g id="q">
	<polygon points="801,1000 748.4,909.6 748.1,908.6 559.1,340.1 559.1,339.9 490.7,98.8 508.3,90.6 688.4,352.6 754.9,618.7 
		877.9,425.5 877.9,287.6 802.3,149 629.2,55.7 553.3,19.7 473.8,19.7 327.8,116.5 161,334.6 122.7,578.8 178.8,729.7 296.6,769.8 
		455.9,769.8 662.5,686.3 669.9,704.5 459.7,789.5 293.3,789.5 163.6,745.4 102.4,580.8 142.3,326.6 314.2,101.9 467.9,0 557.7,0 
		638.3,38.3 816.8,134.5 897.6,282.5 897.6,431.2 746.9,667.9 670.1,360.8 526,151.1 578,334.3 766.5,901.4 818.1,990.1 	"/>
</g>
</svg>
