<?xml version="1.0" encoding="utf-8"?>
<!-- Generator: Adobe Illustrator 24.0.3, SVG Export Plug-In . SVG Version: 6.00 Build 0)  -->
<svg version="1.1" id="Layer_1" xmlns="http://www.w3.org/2000/svg" xmlns:xlink="http://www.w3.org/1999/xlink" x="0px" y="0px"
	 viewBox="0 0 1000 1000" style="enable-background:new 0 0 1000 1000;" xml:space="preserve">
<title>080520-domestic-m-outlined</title>
<g id="d">
	<path d="M147.6,1000l-17.7-8.6l87.4-179.2V605l79.5-39.7l8.9,2.3l8.9-65.7l21.7-414.8L231,45L349.2,0h131.1l1,0.2L792.7,67
		l77.4,55.6L784.3,644L697,690.1l-374.7-97.8l-6,43.9l-24.1,48.2l23.3,23.6l397,25.9l94.4-24.3l42.8-184.6l19.2,4.5l-45.5,196.2
		l-109,28.1l-1.6-0.1l-406-26.5l-38.6-38.9l29-57.9l5.8-43l-4-1.1l-62,31v199.5L147.6,1000z M324.9,572.6l369.7,96.5l71.8-37.9
		l82.2-499.7l-64.1-46.1L478.1,19.7H352.8l-67.5,25.7l71.5,28.6l-22.5,430L324.9,572.6z"/>
</g>
</svg>
