<?xml version="1.0" encoding="utf-8"?>
<!-- Generator: Adobe Illustrator 24.0.3, SVG Export Plug-In . SVG Version: 6.00 Build 0)  -->
<svg version="1.1" id="Layer_1" xmlns="http://www.w3.org/2000/svg" xmlns:xlink="http://www.w3.org/1999/xlink" x="0px" y="0px"
	 viewBox="0 0 1000 1000" style="enable-background:new 0 0 1000 1000;" xml:space="preserve">
<title>080520-domestic-m-outlined</title>
<g id="y">
	<polygon points="818,998 798.7,993.9 823.2,878.2 848.1,558.8 889.8,499.7 876.1,359.3 841.5,192.8 753,77.1 657,44 569.2,79.7 
		491.8,287.7 453.7,101.4 401.2,39 306.2,22.6 202.1,86.4 109.5,244.2 109.5,440.2 148,520.7 148.2,522.3 193.8,890.5 231.6,955.8 
		214.6,965.6 174.8,896.9 128.9,526.3 89.9,444.7 89.9,238.8 187.6,72.2 302.2,2 411.6,20.9 472,92.5 497.3,216.5 553.8,64.8 
		656.5,23 765,60.4 859.8,184.4 860.3,186.6 895.6,356.3 895.7,356.9 910.1,505.1 867.3,565.8 842.8,881 	"/>
</g>
</svg>
