<?xml version="1.0" encoding="utf-8"?>
<!-- Generator: Adobe Illustrator 24.0.3, SVG Export Plug-In . SVG Version: 6.00 Build 0)  -->
<svg version="1.1" id="Layer_1" xmlns="http://www.w3.org/2000/svg" xmlns:xlink="http://www.w3.org/1999/xlink" x="0px" y="0px"
	 viewBox="0 0 1000 1000" style="enable-background:new 0 0 1000 1000;" xml:space="preserve">
<title>080520-domestic-m-outlined</title>
<g id="o">
	<path d="M436.9,999l-2.3-0.8L236,928.7l-166.9-187L9.2,468.9l40.2-172.6L216,72.1L430.6,1l2.4,0.4l303.8,52.8L904.3,215l86.5,252.9
		l-20.1,167.9L837.4,855.6L637.4,969L436.9,999z M247.3,911.9l191.6,67l192-28.8l192.4-109l128.5-211.9L970.8,470l-83.5-244.2
		L727.6,72.5L432.1,21.1L228,88.7l-160.5,216L29.3,469l57.9,263.5L247.3,911.9z"/>
</g>
</svg>
