<?xml version="1.0" encoding="utf-8"?>
<!-- Generator: Adobe Illustrator 24.0.3, SVG Export Plug-In . SVG Version: 6.00 Build 0)  -->
<svg version="1.1" id="Layer_1" xmlns="http://www.w3.org/2000/svg" xmlns:xlink="http://www.w3.org/1999/xlink" x="0px" y="0px"
	 viewBox="0 0 1000 1000" style="enable-background:new 0 0 1000 1000;" xml:space="preserve">
<title>080520-domestic-m-outlined</title>
<g id="w">
	<polygon points="656.8,970.1 548.6,936.5 514.2,854.1 438.6,851 390.6,926.5 281.9,956.5 158.9,896.8 81.1,575.1 28.4,483.8 
		-0.1,305.5 18,185.9 138.6,29.9 154.1,41.9 36.6,193.9 19.7,305.4 47.2,477.1 99.5,567.8 99.9,569.2 175.8,883.2 283.8,935.6 
		378.1,909.6 428.1,831 527.5,835 563.2,920.5 658,950 749.1,933.7 809.4,823.1 883.2,594.6 933.5,535.7 979.8,264.5 949.9,191.4 
		857.9,75.5 825.3,62.5 832.6,44.3 870,59.3 967,181.4 1000.1,262.3 999.6,265.1 951.9,544.3 900.7,604.3 827.5,830.9 827,831.7 
		761.8,951.4 	"/>
</g>
</svg>
