<?xml version="1.0" encoding="utf-8"?>
<!-- Generator: Adobe Illustrator 24.0.3, SVG Export Plug-In . SVG Version: 6.00 Build 0)  -->
<svg version="1.1" id="Layer_1" xmlns="http://www.w3.org/2000/svg" xmlns:xlink="http://www.w3.org/1999/xlink" x="0px" y="0px"
	 viewBox="0 0 1000 1000" style="enable-background:new 0 0 1000 1000;" xml:space="preserve">
<title>080520-domestic-m-outlined</title>
<g id="u">
	<polygon points="234.3,1000 139.7,1000 73.1,960.4 61,854.6 72.5,676.4 118.6,55.8 184.7,0.2 197.3,15.2 137.6,65.5 92.1,677.7 
		80.7,854.1 91.5,948.5 145.1,980.3 233.5,980.3 527.5,956.1 811.9,921.6 862.1,930 908.8,911.5 918.8,857.6 899.3,785 870.6,658.5 
		864.9,584.8 839.4,516.8 839.3,516.2 745.1,105.1 720.6,45.3 682.6,15.4 694.7,0 736.8,33.1 763.8,99.1 858.3,511.1 884.3,580.5 
		890,655.5 918.4,780.5 939,856.8 926.1,925.8 864.2,950.3 811.4,941.5 529.5,975.6 529.3,975.7 	"/>
</g>
</svg>
