<?xml version="1.0" encoding="utf-8"?>
<!-- Generator: Adobe Illustrator 24.0.3, SVG Export Plug-In . SVG Version: 6.00 Build 0)  -->
<svg version="1.1" id="Layer_1" xmlns="http://www.w3.org/2000/svg" xmlns:xlink="http://www.w3.org/1999/xlink" x="0px" y="0px"
	 viewBox="0 0 1000 1000" style="enable-background:new 0 0 1000 1000;" xml:space="preserve">
<title>080520-domestic-e-outlined</title>
<g id="o">
	<polygon points="394,1000 374.8,995.8 398.2,888.4 398.2,760.1 374.7,468.5 346.3,206 346.3,52.5 467.6,7 547.4,7 627.5,52.1 
		653.7,99.2 653.7,152.9 604.1,202.5 573.8,242.9 500.4,253.1 425.5,248.2 382.3,238.6 386.6,219.5 428.3,228.8 499.6,233.4 
		563,224.6 589.3,189.6 634.1,144.8 634.1,104.3 613.1,66.4 542.2,26.6 471.1,26.6 365.9,66.1 365.9,205 394.2,466.7 394.2,466.8 
		417.8,759.3 417.8,890.5 	"/>
</g>
</svg>
