<?xml version="1.0" encoding="utf-8"?>
<!-- Generator: Adobe Illustrator 24.0.3, SVG Export Plug-In . SVG Version: 6.00 Build 0)  -->
<svg version="1.1" id="Layer_1" xmlns="http://www.w3.org/2000/svg" xmlns:xlink="http://www.w3.org/1999/xlink" x="0px" y="0px"
	 viewBox="0 0 1000 1000" style="enable-background:new 0 0 1000 1000;" xml:space="preserve">
<title>080520-domestic-e-outlined</title>
<g id="o">
	<path d="M994.3,649.1l-558-115.5L392,568.5h-83.3l-46.9-75.7l4.3-26.1l-22.3-11.4H170L101.6,474l-89.2,57.4L1.7,514.7l91.8-59
		l73.9-20.1h81.3l20.9,10.7l13.2-79l40.9-16.3l76.3,25.4l31.7,109.3l-28.7,49.2l28.5-22.4l567,117.3L994.3,649.1z M319.7,548.7h65.4
		l16.4-12.9l-116.9-59.7l-2.1,12.5L319.7,548.7z M288,455.7L394.4,510l15.8-27l-26.5-91.2l-59.5-19.8l-23.8,9.5L288,455.7z"/>
</g>
</svg>
