<?xml version="1.0" encoding="utf-8"?>
<!-- Generator: Adobe Illustrator 24.0.3, SVG Export Plug-In . SVG Version: 6.00 Build 0)  -->
<svg version="1.1" id="Layer_1" xmlns="http://www.w3.org/2000/svg" xmlns:xlink="http://www.w3.org/1999/xlink" x="0px" y="0px"
	 viewBox="0 0 1000 1000" style="enable-background:new 0 0 1000 1000;" xml:space="preserve">
<title>080520-domestic-e-outlined</title>
<g id="l">
	<polygon points="87.8,549.2 63.9,549.2 47.4,544.8 27,541.1 4.8,548.7 -1.6,529.7 25.4,520.5 52.2,525.3 66.6,529.2 83.5,529.2 
		118.3,513.6 142.9,513.6 160.9,521.4 178.6,521.4 206.2,502.8 235.7,502.8 254.5,516 273.9,516 307,497.7 339.7,501.9 353.8,509.5 
		369.3,506.8 400.9,490.4 434.8,496 447.7,503.5 463.8,500.8 495,484.8 521.4,484.8 538.5,493.3 554.2,494.2 592.1,475.9 614,480.3 
		634.9,487.3 653,488.2 680.4,469.2 709.6,469.2 729.2,477.8 749.7,479.6 759.8,470.5 783.4,461.7 814.3,467 832.7,472.8 
		848.4,472.8 863.3,456.7 897.2,450.8 919,460.3 931.7,465.2 946.5,462.5 966.6,451.2 1001.6,451.2 1001.6,471.2 971.8,471.2 
		953.5,481.5 929.8,485.9 911.2,478.7 894.7,471.5 873.4,475.2 857.1,492.8 829.6,492.8 809.6,486.5 785.3,482.3 770.4,487.9 
		756.6,500.3 724.2,497.4 705.4,489.2 686.6,489.2 658.8,508.5 631.2,507.1 608.9,499.7 594.8,496.8 558.3,514.5 533.2,513 
		516.7,504.8 499.8,504.8 470.2,520 443.9,524.5 427.9,515.2 404.2,511.2 375.8,526 350.5,530.4 333.4,521.3 310.9,518.3 279.1,536 
		248.1,536 229.4,522.8 212.4,522.8 184.7,541.4 156.8,541.4 138.8,533.6 122.6,533.6 	"/>
</g>
</svg>
