<?xml version="1.0" encoding="utf-8"?>
<!-- Generator: Adobe Illustrator 24.0.3, SVG Export Plug-In . SVG Version: 6.00 Build 0)  -->
<svg version="1.1" id="Layer_1" xmlns="http://www.w3.org/2000/svg" xmlns:xlink="http://www.w3.org/1999/xlink" x="0px" y="0px"
	 viewBox="0 0 1000 1000" style="enable-background:new 0 0 1000 1000;" xml:space="preserve">
<title>080520-domestic-c-outlined</title>
<g id="z">
	<path d="M320.9,998.6L304.4,988l54.4-84.7l2.5-1.2l317.7-153l0.2-0.1l192.2-83.8l77.9-446.4L911.4,151l-306.6,27.9l-8.9,92
		l-19.6-1.9l8.6-88.3l-379,34.5L93.8,184.1L30.2,37.8L73.9,1.4h522l20.8,55.6l-9.9,102l315.6-28.8l47.5,85.1l-80.9,463.8l-201.7,88
		L372.4,918.6L320.9,998.6z M108.1,167.6l99.6,27.7l379.2-34.5l9.8-101.2L582.2,21H81L54.1,43.4L108.1,167.6z"/>
</g>
</svg>
