<?xml version="1.0" encoding="utf-8"?>
<!-- Generator: Adobe Illustrator 24.0.3, SVG Export Plug-In . SVG Version: 6.00 Build 0)  -->
<svg version="1.1" id="Layer_1" xmlns="http://www.w3.org/2000/svg" xmlns:xlink="http://www.w3.org/1999/xlink" x="0px" y="0px"
	 viewBox="0 0 1000 1000" style="enable-background:new 0 0 1000 1000;" xml:space="preserve">
<title>080520-domestic-c-outlined</title>
<g id="b">
	<path d="M633.9,1000.3H489.8l-118.5-36.5l-56.6-94.2l44-149.5L317.2,604l-142.3-89l53.8-349.7L333.3,38L644-0.3l181.2,226.4
		l-63,245.3L680,555.6L825,690l-36.6,210.3L633.9,1000.3z M492.7,980.7h135.4l142.5-92.2l33.3-191.4l-152-140.8l92.5-94.9
		l59.3-230.7L635.5,20.5l-292,36l-96.2,117.1l-51,331.6L333.4,591l45.9,128.5l-43.4,147.4l48.3,80.4L492.7,980.7z"/>
</g>
</svg>
