<?xml version="1.0" encoding="utf-8"?>
<!-- Generator: Adobe Illustrator 24.0.3, SVG Export Plug-In . SVG Version: 6.00 Build 0)  -->
<svg version="1.1" id="Layer_1" xmlns="http://www.w3.org/2000/svg" xmlns:xlink="http://www.w3.org/1999/xlink" x="0px" y="0px"
	 viewBox="0 0 1000 1000" style="enable-background:new 0 0 1000 1000;" xml:space="preserve">
<title>080520-domestic-c-outlined</title>
<g id="z">
	<polygon points="205,967.8 160.1,743.3 60,398.5 0,267.7 22.5,185.1 130.2,99 257.2,56.6 424.9,32.2 498.7,32.2 625.4,151.8 
		767.4,241.9 832.4,305.9 893.1,419.3 950.4,384.5 1000,400.6 944.7,462.5 735.1,513.6 423.1,532.7 287.7,501.1 287,500.8 
		96.7,424.7 103.9,406.6 293.6,482.5 424.7,513.2 732.2,494.2 934.3,445 965.6,409.9 952.9,405.8 885.6,446.6 816.6,317.7 
		755.2,257.2 613.4,167.3 491,51.6 426.3,51.6 261.8,75.6 139.6,116.3 39.6,196.3 20.6,266 78.3,391.7 78.5,392.4 179,738.7 
		179.1,739.1 224,964 	"/>
</g>
</svg>
