<?xml version="1.0" encoding="utf-8"?>
<!-- Generator: Adobe Illustrator 24.0.3, SVG Export Plug-In . SVG Version: 6.00 Build 0)  -->
<svg version="1.1" id="Layer_1" xmlns="http://www.w3.org/2000/svg" xmlns:xlink="http://www.w3.org/1999/xlink" x="0px" y="0px"
	 viewBox="0 0 1000 1000" style="enable-background:new 0 0 1000 1000;" xml:space="preserve">
<title>080520-domestic-c-outlined</title>
<g id="s">
	<path d="M404.4,952.4L234,921.3L42,848L0,756.4l44.6-44.6l146.9-21L346,677.1l172.2,24.1l0.7,0.2l184.8,53l84,39.8l1.6-170.2
		L873,367.5l25.5-129.1l38.4-160.7l45.2-30.1l17.8,66.9l-41.6,145.3l-66.3,353.8L863,802l-29.7,74.1l-162.3,31.7L404.4,952.4z
		 M239.3,902.4l165.3,30.2l263.1-44l151.4-29.6l24.9-62.2l28.8-186.5v-0.1l66.5-354.9l40.3-141l-9.4-35.3l-16.1,10.7l-36.5,152.9
		l-25.6,129.9l-0.2,0.6l-83,254.2L806.9,825l-110.2-52.3l-182.6-52.4l-168.6-23.6l-152,13.5l-139.6,20l-30.4,30.4l32.9,72
		L239.3,902.4z"/>
</g>
</svg>
