<?xml version="1.0" encoding="utf-8"?>
<!-- Generator: Adobe Illustrator 24.0.3, SVG Export Plug-In . SVG Version: 6.00 Build 0)  -->
<svg version="1.1" id="a" xmlns="http://www.w3.org/2000/svg" xmlns:xlink="http://www.w3.org/1999/xlink" x="0px" y="0px"
	 viewBox="0 0 1000 1000" style="enable-background:new 0 0 1000 1000;" xml:space="preserve">
<title>080520-domestic-c-outlined</title>
<path d="M88.4,949.1h-86l117.4-461.6L180,386.6l119.2-134.5l0.8-0.6L564.8,50.9l119.8,77l27.8,277.6L821,584.1l176.6,243.4
	l-15.8,11.5l-177.1-244l-55.9-91.9l27,98.5l-25,74.9L682.5,773l-88.4,76.3l-61.3,28.5l223.7-18.9l148.8-31.3l4,19.1l-150,31.6
	l-0.6,0l-279,23.6l-4.9-18.6l108.8-50.5l84.5-73l65.3-92.2l22.2-66.6l-26.4-96.2l-61.7-106.5l-59.7-61l-105-13.1l-117.3,26.5
	l-87,90.7L252.9,567l19,132.7l71.8,97.1L88.4,949.1z M27.5,929.6H83l232.2-138.5l-61.9-83.7l-20.4-142.5L281.6,431l93.9-97.9
	l126.4-28.5L617,318.9l66.1,67.6l9.3,16L666,139.2L565.7,74.7L312.4,266.5L195.8,398.2L138,495L27.5,929.6z"/>
</svg>
