<?xml version="1.0" encoding="utf-8"?>
<!-- Generator: Adobe Illustrator 24.0.3, SVG Export Plug-In . SVG Version: 6.00 Build 0)  -->
<svg version="1.1" id="Layer_1" xmlns="http://www.w3.org/2000/svg" xmlns:xlink="http://www.w3.org/1999/xlink" x="0px" y="0px"
	 viewBox="0 0 1000 1000" style="enable-background:new 0 0 1000 1000;" xml:space="preserve">
<title>080520-domestic-c-outlined</title>
<g id="q">
	<polygon points="328.3,965.1 312.6,953.3 387.4,853.6 189.1,747.4 189.1,620.3 261.7,569.5 261.7,522.7 30.7,414.5 -0.1,281.6 
		53.7,152.9 350.2,56.8 627.5,34.9 767.8,57.1 914,122.9 953.5,139.2 1000.1,327.9 953.5,509.2 730.3,599 728.1,598.9 378.7,577 
		297.9,555 303.1,536.1 381.9,557.6 727.1,579.2 937,494.8 979.9,327.8 936.9,153.5 906.1,140.8 762.2,76 626.7,54.6 354,76.2 
		68.3,168.8 20.4,283.3 47.7,400.8 281.2,510.3 281.2,579.7 208.7,630.5 208.7,735.6 416.8,847.1 	"/>
</g>
</svg>
